{
  "accessors": [
    {
      "bufferView": 1,
      "componentType": 5126,
      "count": 1716,
      "max": [
        6.6777539253234863,
        7.6778597831726074,
        15.32988452911377
      ],
      "min": [
        -6.0034298896789551,
        -6.4091711044311523,
        -12.548919677734375
      ],
      "type": "VEC3"
    },
    {
      "bufferView": 1,
      "byteOffset": 20592,
      "componentType": 5126,
      "count": 1716,
      "max": [
        0.99899846315383911,
        0.99833160638809204,
        0.99781924486160278
      ],
      "min": [
        -0.99977701902389526,
        -0.99457246065139771,
        -0.99794650077819824
      ],
      "type": "VEC3"
    },
    {
      "bufferView": 2,
      "componentType": 5126,
      "count": 1716,
      "max": [
        0.99347072839736938,
        0.99531233310699463,
        0.99853312969207764,
        1
      ],
      "min": [
        -0.99779248237609863,
        -0.99905425310134888,
        -0.99965548515319824,
        -1
      ],
      "type": "VEC4"
    },
    {
      "bufferView": 0,
      "componentType": 5125,
      "count": 5934,
      "max": [
        1715
      ],
      "min": [
        0
      ],
      "type": "SCALAR"
    }
  ],
  "asset": {
    "extras": {
      "author": "jasonin10 (https://sketchfab.com/jasonin10)",
      "license": "CC-BY-4.0 (http://creativecommons.org/licenses/by/4.0/)",
      "source": "https://sketchfab.com/models/d690519cefbd49e4956610d5dd1a267a",
      "title": "Test Middle Finger"
    },
    "generator": "Sketchfab-3.18.6",
    "version": "2.0"
  },
  "bufferViews": [
    {
      "buffer": 0,
      "byteLength": 23736,
      "byteOffset": 0,
      "name": "floatBufferViews",
      "target": 34963
    },
    {
      "buffer": 0,
      "byteLength": 41184,
      "byteOffset": 23736,
      "byteStride": 12,
      "name": "floatBufferViews",
      "target": 34962
    },
    {
      "buffer": 0,
      "byteLength": 27456,
      "byteOffset": 64920,
      "byteStride": 16,
      "name": "floatBufferViews",
      "target": 34962
    }
  ],
  "buffers": [
    {
      "byteLength": 92376,
      "uri": "scene.bin"
    }
  ],
  "materials": [
    {
      "doubleSided": true,
      "emissiveFactor": [
        0,
        0,
        0
      ],
      "name": "material_0",
      "pbrMetallicRoughness": {
        "baseColorFactor": [
          1,
          1,
          1,
          1
        ],
        "metallicFactor": 0,
        "roughnessFactor": 0.59999999999999998
      }
    }
  ],
  "meshes": [
    {
      "primitives": [
        {
          "attributes": {
            "NORMAL": 1,
            "POSITION": 0,
            "TANGENT": 2
          },
          "indices": 3,
          "material": 0,
          "mode": 4
        }
      ]
    }
  ],
  "nodes": [
    {
      "children": [
        1
      ],
      "name": "RootNode (gltf orientation matrix)",
      "rotation": [
        -0.70710678118654746,
        -0,
        -0,
        0.70710678118654757
      ]
    },
    {
      "children": [
        2
      ],
      "name": "RootNode (model correction matrix)"
    },
    {
      "children": [
        3
      ],
      "name": "355106c78385416cbaadd94ffc0b13ee.obj.cleaner.materialmerger.gles"
    },
    {
      "mesh": 0,
      "name": ""
    }
  ],
  "scene": 0,
  "scenes": [
    {
      "name": "OSG_Scene",
      "nodes": [
        0
      ]
    }
  ]
}

